<mxfile host="Electron" agent="Mozilla/5.0 (Windows NT 10.0; Win64; x64) AppleWebKit/537.36 (KHTML, like Gecko) draw.io/28.1.2 Chrome/138.0.7204.243 Electron/37.4.0 Safari/537.36" version="28.1.2">
  <diagram name="PÃ¡gina-1" id="IuRtJYGjbX5U6hXFFZz4">
    <mxGraphModel dx="1097" dy="647" grid="1" gridSize="10" guides="1" tooltips="1" connect="1" arrows="1" fold="1" page="1" pageScale="1" pageWidth="1169" pageHeight="827" math="0" shadow="0">
      <root>
        <mxCell id="0" />
        <mxCell id="1" parent="0" />
        <mxCell id="yy-dJuk-gIZpOYsQ96ie-3" value="num_transaccion" style="ellipse;whiteSpace=wrap;html=1;align=center;" vertex="1" parent="1">
          <mxGeometry x="500" y="190" width="97" height="40" as="geometry" />
        </mxCell>
        <mxCell id="yy-dJuk-gIZpOYsQ96ie-5" value="fecha" style="ellipse;whiteSpace=wrap;html=1;align=center;" vertex="1" parent="1">
          <mxGeometry x="590" y="160" width="60" height="40" as="geometry" />
        </mxCell>
        <mxCell id="yy-dJuk-gIZpOYsQ96ie-10" value="cantidad" style="ellipse;whiteSpace=wrap;html=1;align=center;" vertex="1" parent="1">
          <mxGeometry x="633" y="190" width="70" height="40" as="geometry" />
        </mxCell>
        <mxCell id="yy-dJuk-gIZpOYsQ96ie-16" style="edgeStyle=orthogonalEdgeStyle;rounded=0;orthogonalLoop=1;jettySize=auto;html=1;exitX=0.25;exitY=0;exitDx=0;exitDy=0;entryX=0.5;entryY=1;entryDx=0;entryDy=0;" edge="1" parent="1" source="yy-dJuk-gIZpOYsQ96ie-15" target="yy-dJuk-gIZpOYsQ96ie-17">
          <mxGeometry relative="1" as="geometry">
            <mxPoint x="790" y="210" as="targetPoint" />
          </mxGeometry>
        </mxCell>
        <mxCell id="yy-dJuk-gIZpOYsQ96ie-23" style="edgeStyle=orthogonalEdgeStyle;rounded=0;orthogonalLoop=1;jettySize=auto;html=1;exitX=0.5;exitY=0;exitDx=0;exitDy=0;entryX=0.5;entryY=1;entryDx=0;entryDy=0;" edge="1" parent="1" source="yy-dJuk-gIZpOYsQ96ie-15" target="yy-dJuk-gIZpOYsQ96ie-19">
          <mxGeometry relative="1" as="geometry" />
        </mxCell>
        <mxCell id="yy-dJuk-gIZpOYsQ96ie-24" style="edgeStyle=orthogonalEdgeStyle;rounded=0;orthogonalLoop=1;jettySize=auto;html=1;exitX=0.75;exitY=0;exitDx=0;exitDy=0;entryX=0.5;entryY=1;entryDx=0;entryDy=0;" edge="1" parent="1" source="yy-dJuk-gIZpOYsQ96ie-15" target="yy-dJuk-gIZpOYsQ96ie-20">
          <mxGeometry relative="1" as="geometry" />
        </mxCell>
        <mxCell id="yy-dJuk-gIZpOYsQ96ie-25" style="edgeStyle=orthogonalEdgeStyle;rounded=0;orthogonalLoop=1;jettySize=auto;html=1;exitX=1;exitY=0;exitDx=0;exitDy=0;entryX=0.5;entryY=1;entryDx=0;entryDy=0;" edge="1" parent="1" source="yy-dJuk-gIZpOYsQ96ie-15" target="yy-dJuk-gIZpOYsQ96ie-21">
          <mxGeometry relative="1" as="geometry" />
        </mxCell>
        <mxCell id="yy-dJuk-gIZpOYsQ96ie-34" value="" style="edgeStyle=orthogonalEdgeStyle;rounded=0;orthogonalLoop=1;jettySize=auto;html=1;" edge="1" parent="1" source="yy-dJuk-gIZpOYsQ96ie-15" target="yy-dJuk-gIZpOYsQ96ie-33">
          <mxGeometry relative="1" as="geometry" />
        </mxCell>
        <mxCell id="yy-dJuk-gIZpOYsQ96ie-57" style="edgeStyle=orthogonalEdgeStyle;rounded=0;orthogonalLoop=1;jettySize=auto;html=1;exitX=1;exitY=0.5;exitDx=0;exitDy=0;entryX=0.5;entryY=1;entryDx=0;entryDy=0;" edge="1" parent="1" source="yy-dJuk-gIZpOYsQ96ie-15" target="yy-dJuk-gIZpOYsQ96ie-56">
          <mxGeometry relative="1" as="geometry" />
        </mxCell>
        <mxCell id="yy-dJuk-gIZpOYsQ96ie-87" style="edgeStyle=orthogonalEdgeStyle;rounded=0;orthogonalLoop=1;jettySize=auto;html=1;exitX=1;exitY=1;exitDx=0;exitDy=0;entryX=0;entryY=0.5;entryDx=0;entryDy=0;" edge="1" parent="1" source="yy-dJuk-gIZpOYsQ96ie-15" target="yy-dJuk-gIZpOYsQ96ie-22">
          <mxGeometry relative="1" as="geometry" />
        </mxCell>
        <mxCell id="yy-dJuk-gIZpOYsQ96ie-15" value="Cliente" style="whiteSpace=wrap;html=1;align=center;" vertex="1" parent="1">
          <mxGeometry x="810" y="260" width="100" height="40" as="geometry" />
        </mxCell>
        <mxCell id="yy-dJuk-gIZpOYsQ96ie-79" style="edgeStyle=orthogonalEdgeStyle;rounded=0;orthogonalLoop=1;jettySize=auto;html=1;exitX=0;exitY=0;exitDx=0;exitDy=0;" edge="1" parent="1" source="yy-dJuk-gIZpOYsQ96ie-17" target="yy-dJuk-gIZpOYsQ96ie-80">
          <mxGeometry relative="1" as="geometry">
            <mxPoint x="730.0000000000002" y="140" as="targetPoint" />
          </mxGeometry>
        </mxCell>
        <mxCell id="yy-dJuk-gIZpOYsQ96ie-83" style="edgeStyle=orthogonalEdgeStyle;rounded=0;orthogonalLoop=1;jettySize=auto;html=1;exitX=0.5;exitY=0;exitDx=0;exitDy=0;entryX=0.5;entryY=1;entryDx=0;entryDy=0;" edge="1" parent="1" source="yy-dJuk-gIZpOYsQ96ie-17" target="yy-dJuk-gIZpOYsQ96ie-82">
          <mxGeometry relative="1" as="geometry" />
        </mxCell>
        <mxCell id="yy-dJuk-gIZpOYsQ96ie-86" style="edgeStyle=orthogonalEdgeStyle;rounded=0;orthogonalLoop=1;jettySize=auto;html=1;exitX=1;exitY=0;exitDx=0;exitDy=0;entryX=0.5;entryY=1;entryDx=0;entryDy=0;" edge="1" parent="1" source="yy-dJuk-gIZpOYsQ96ie-17" target="yy-dJuk-gIZpOYsQ96ie-85">
          <mxGeometry relative="1" as="geometry" />
        </mxCell>
        <mxCell id="yy-dJuk-gIZpOYsQ96ie-17" value="nombre" style="ellipse;whiteSpace=wrap;html=1;align=center;" vertex="1" parent="1">
          <mxGeometry x="750" y="170" width="70" height="40" as="geometry" />
        </mxCell>
        <mxCell id="yy-dJuk-gIZpOYsQ96ie-19" value="dni" style="ellipse;whiteSpace=wrap;html=1;align=center;fontStyle=4;" vertex="1" parent="1">
          <mxGeometry x="830" y="160" width="40" height="40" as="geometry" />
        </mxCell>
        <mxCell id="yy-dJuk-gIZpOYsQ96ie-73" style="edgeStyle=orthogonalEdgeStyle;rounded=0;orthogonalLoop=1;jettySize=auto;html=1;exitX=0;exitY=0;exitDx=0;exitDy=0;" edge="1" parent="1" source="yy-dJuk-gIZpOYsQ96ie-20" target="yy-dJuk-gIZpOYsQ96ie-74">
          <mxGeometry relative="1" as="geometry">
            <mxPoint x="850" y="100" as="targetPoint" />
          </mxGeometry>
        </mxCell>
        <mxCell id="yy-dJuk-gIZpOYsQ96ie-75" style="edgeStyle=orthogonalEdgeStyle;rounded=0;orthogonalLoop=1;jettySize=auto;html=1;exitX=0.5;exitY=0;exitDx=0;exitDy=0;" edge="1" parent="1" source="yy-dJuk-gIZpOYsQ96ie-20" target="yy-dJuk-gIZpOYsQ96ie-76">
          <mxGeometry relative="1" as="geometry">
            <mxPoint x="884.9090909090905" y="70" as="targetPoint" />
          </mxGeometry>
        </mxCell>
        <mxCell id="yy-dJuk-gIZpOYsQ96ie-77" style="edgeStyle=orthogonalEdgeStyle;rounded=0;orthogonalLoop=1;jettySize=auto;html=1;exitX=1;exitY=0;exitDx=0;exitDy=0;" edge="1" parent="1" source="yy-dJuk-gIZpOYsQ96ie-20" target="yy-dJuk-gIZpOYsQ96ie-78">
          <mxGeometry relative="1" as="geometry">
            <mxPoint x="920" y="70" as="targetPoint" />
          </mxGeometry>
        </mxCell>
        <mxCell id="yy-dJuk-gIZpOYsQ96ie-20" value="direccion" style="ellipse;whiteSpace=wrap;html=1;align=center;" vertex="1" parent="1">
          <mxGeometry x="850" y="120" width="70" height="40" as="geometry" />
        </mxCell>
        <mxCell id="yy-dJuk-gIZpOYsQ96ie-21" value="localidad" style="ellipse;whiteSpace=wrap;html=1;align=center;" vertex="1" parent="1">
          <mxGeometry x="930" y="130" width="70" height="40" as="geometry" />
        </mxCell>
        <mxCell id="yy-dJuk-gIZpOYsQ96ie-22" value="f_nacimiento" style="ellipse;whiteSpace=wrap;html=1;align=center;" vertex="1" parent="1">
          <mxGeometry x="1000" y="300" width="70" height="40" as="geometry" />
        </mxCell>
        <mxCell id="yy-dJuk-gIZpOYsQ96ie-30" value="" style="edgeStyle=orthogonalEdgeStyle;rounded=0;orthogonalLoop=1;jettySize=auto;html=1;" edge="1" parent="1" source="yy-dJuk-gIZpOYsQ96ie-27" target="yy-dJuk-gIZpOYsQ96ie-10">
          <mxGeometry relative="1" as="geometry" />
        </mxCell>
        <mxCell id="yy-dJuk-gIZpOYsQ96ie-31" style="edgeStyle=orthogonalEdgeStyle;rounded=0;orthogonalLoop=1;jettySize=auto;html=1;exitX=0.25;exitY=0;exitDx=0;exitDy=0;entryX=0.5;entryY=1;entryDx=0;entryDy=0;" edge="1" parent="1" source="yy-dJuk-gIZpOYsQ96ie-27" target="yy-dJuk-gIZpOYsQ96ie-5">
          <mxGeometry relative="1" as="geometry" />
        </mxCell>
        <mxCell id="yy-dJuk-gIZpOYsQ96ie-32" style="edgeStyle=orthogonalEdgeStyle;rounded=0;orthogonalLoop=1;jettySize=auto;html=1;exitX=0;exitY=0.25;exitDx=0;exitDy=0;entryX=0.5;entryY=1;entryDx=0;entryDy=0;" edge="1" parent="1" source="yy-dJuk-gIZpOYsQ96ie-27" target="yy-dJuk-gIZpOYsQ96ie-3">
          <mxGeometry relative="1" as="geometry" />
        </mxCell>
        <mxCell id="yy-dJuk-gIZpOYsQ96ie-27" value="Transcaccion" style="shape=ext;margin=3;double=1;whiteSpace=wrap;html=1;align=center;" vertex="1" parent="1">
          <mxGeometry x="580" y="260" width="100" height="40" as="geometry" />
        </mxCell>
        <mxCell id="yy-dJuk-gIZpOYsQ96ie-36" value="" style="edgeStyle=orthogonalEdgeStyle;rounded=0;orthogonalLoop=1;jettySize=auto;html=1;" edge="1" parent="1" source="yy-dJuk-gIZpOYsQ96ie-33" target="yy-dJuk-gIZpOYsQ96ie-35">
          <mxGeometry relative="1" as="geometry" />
        </mxCell>
        <mxCell id="yy-dJuk-gIZpOYsQ96ie-33" value="Tiene" style="shape=rhombus;perimeter=rhombusPerimeter;whiteSpace=wrap;html=1;align=center;" vertex="1" parent="1">
          <mxGeometry x="800" y="440" width="120" height="60" as="geometry" />
        </mxCell>
        <mxCell id="yy-dJuk-gIZpOYsQ96ie-46" value="" style="edgeStyle=orthogonalEdgeStyle;rounded=0;orthogonalLoop=1;jettySize=auto;html=1;" edge="1" parent="1" source="yy-dJuk-gIZpOYsQ96ie-35" target="yy-dJuk-gIZpOYsQ96ie-45">
          <mxGeometry relative="1" as="geometry" />
        </mxCell>
        <mxCell id="yy-dJuk-gIZpOYsQ96ie-59" style="edgeStyle=orthogonalEdgeStyle;rounded=0;orthogonalLoop=1;jettySize=auto;html=1;exitX=0.25;exitY=1;exitDx=0;exitDy=0;" edge="1" parent="1" source="yy-dJuk-gIZpOYsQ96ie-35" target="yy-dJuk-gIZpOYsQ96ie-60">
          <mxGeometry relative="1" as="geometry">
            <mxPoint x="604.9090909090908" y="520" as="targetPoint" />
          </mxGeometry>
        </mxCell>
        <mxCell id="yy-dJuk-gIZpOYsQ96ie-63" style="edgeStyle=orthogonalEdgeStyle;rounded=0;orthogonalLoop=1;jettySize=auto;html=1;exitX=0.75;exitY=1;exitDx=0;exitDy=0;entryX=0.5;entryY=0;entryDx=0;entryDy=0;" edge="1" parent="1" source="yy-dJuk-gIZpOYsQ96ie-35" target="yy-dJuk-gIZpOYsQ96ie-62">
          <mxGeometry relative="1" as="geometry" />
        </mxCell>
        <mxCell id="yy-dJuk-gIZpOYsQ96ie-35" value="Cuenta" style="whiteSpace=wrap;html=1;align=center;" vertex="1" parent="1">
          <mxGeometry x="580" y="450" width="100" height="40" as="geometry" />
        </mxCell>
        <mxCell id="yy-dJuk-gIZpOYsQ96ie-38" value="" style="edgeStyle=orthogonalEdgeStyle;rounded=0;orthogonalLoop=1;jettySize=auto;html=1;" edge="1" parent="1" source="yy-dJuk-gIZpOYsQ96ie-37" target="yy-dJuk-gIZpOYsQ96ie-27">
          <mxGeometry relative="1" as="geometry" />
        </mxCell>
        <mxCell id="yy-dJuk-gIZpOYsQ96ie-39" value="" style="edgeStyle=orthogonalEdgeStyle;rounded=0;orthogonalLoop=1;jettySize=auto;html=1;" edge="1" parent="1" source="yy-dJuk-gIZpOYsQ96ie-37" target="yy-dJuk-gIZpOYsQ96ie-35">
          <mxGeometry relative="1" as="geometry" />
        </mxCell>
        <mxCell id="yy-dJuk-gIZpOYsQ96ie-37" value="Pertenece" style="shape=rhombus;perimeter=rhombusPerimeter;whiteSpace=wrap;html=1;align=center;" vertex="1" parent="1">
          <mxGeometry x="570" y="340" width="120" height="60" as="geometry" />
        </mxCell>
        <mxCell id="yy-dJuk-gIZpOYsQ96ie-40" value="(1:n)" style="text;html=1;align=center;verticalAlign=middle;resizable=0;points=[];autosize=1;strokeColor=none;fillColor=none;" vertex="1" parent="1">
          <mxGeometry x="862.46" y="300" width="50" height="30" as="geometry" />
        </mxCell>
        <mxCell id="yy-dJuk-gIZpOYsQ96ie-41" value="(1:n)" style="text;html=1;align=center;verticalAlign=middle;resizable=0;points=[];autosize=1;strokeColor=none;fillColor=none;" vertex="1" parent="1">
          <mxGeometry x="680" y="480" width="50" height="30" as="geometry" />
        </mxCell>
        <mxCell id="yy-dJuk-gIZpOYsQ96ie-42" value="N:M" style="text;html=1;align=center;verticalAlign=middle;resizable=0;points=[];autosize=1;strokeColor=none;fillColor=none;" vertex="1" parent="1">
          <mxGeometry x="835" y="500" width="50" height="30" as="geometry" />
        </mxCell>
        <mxCell id="yy-dJuk-gIZpOYsQ96ie-54" style="edgeStyle=orthogonalEdgeStyle;rounded=0;orthogonalLoop=1;jettySize=auto;html=1;exitX=0.25;exitY=1;exitDx=0;exitDy=0;" edge="1" parent="1" source="yy-dJuk-gIZpOYsQ96ie-44" target="yy-dJuk-gIZpOYsQ96ie-55">
          <mxGeometry relative="1" as="geometry">
            <mxPoint x="285.4000000000001" y="520" as="targetPoint" />
          </mxGeometry>
        </mxCell>
        <mxCell id="yy-dJuk-gIZpOYsQ96ie-44" value="Sucursal" style="whiteSpace=wrap;html=1;align=center;" vertex="1" parent="1">
          <mxGeometry x="260" y="450" width="100" height="40" as="geometry" />
        </mxCell>
        <mxCell id="yy-dJuk-gIZpOYsQ96ie-47" value="" style="edgeStyle=orthogonalEdgeStyle;rounded=0;orthogonalLoop=1;jettySize=auto;html=1;" edge="1" parent="1" source="yy-dJuk-gIZpOYsQ96ie-45" target="yy-dJuk-gIZpOYsQ96ie-44">
          <mxGeometry relative="1" as="geometry" />
        </mxCell>
        <mxCell id="yy-dJuk-gIZpOYsQ96ie-45" value="Pertenece" style="shape=rhombus;perimeter=rhombusPerimeter;whiteSpace=wrap;html=1;align=center;" vertex="1" parent="1">
          <mxGeometry x="410" y="440" width="120" height="60" as="geometry" />
        </mxCell>
        <mxCell id="yy-dJuk-gIZpOYsQ96ie-55" value="id_sucursal" style="ellipse;whiteSpace=wrap;html=1;align=center;fontStyle=4;" vertex="1" parent="1">
          <mxGeometry x="235.4000000000001" y="530" width="100" height="40" as="geometry" />
        </mxCell>
        <mxCell id="yy-dJuk-gIZpOYsQ96ie-56" value="sexo" style="ellipse;whiteSpace=wrap;html=1;align=center;" vertex="1" parent="1">
          <mxGeometry x="980" y="210" width="50" height="40" as="geometry" />
        </mxCell>
        <mxCell id="yy-dJuk-gIZpOYsQ96ie-60" value="num_cuenta" style="ellipse;whiteSpace=wrap;html=1;align=center;fontStyle=4;" vertex="1" parent="1">
          <mxGeometry x="553" y="530" width="80" height="40" as="geometry" />
        </mxCell>
        <mxCell id="yy-dJuk-gIZpOYsQ96ie-62" value="saldo" style="ellipse;whiteSpace=wrap;html=1;align=center;" vertex="1" parent="1">
          <mxGeometry x="645" y="530" width="60" height="40" as="geometry" />
        </mxCell>
        <mxCell id="yy-dJuk-gIZpOYsQ96ie-64" value="(1:1)" style="text;html=1;align=center;verticalAlign=middle;resizable=0;points=[];autosize=1;strokeColor=none;fillColor=none;" vertex="1" parent="1">
          <mxGeometry x="325" y="420" width="50" height="30" as="geometry" />
        </mxCell>
        <mxCell id="yy-dJuk-gIZpOYsQ96ie-65" value="(1:n)" style="text;html=1;align=center;verticalAlign=middle;resizable=0;points=[];autosize=1;strokeColor=none;fillColor=none;" vertex="1" parent="1">
          <mxGeometry x="559" y="420" width="50" height="30" as="geometry" />
        </mxCell>
        <mxCell id="yy-dJuk-gIZpOYsQ96ie-66" value="1:N" style="text;html=1;align=center;verticalAlign=middle;resizable=0;points=[];autosize=1;strokeColor=none;fillColor=none;" vertex="1" parent="1">
          <mxGeometry x="450" y="408" width="40" height="30" as="geometry" />
        </mxCell>
        <mxCell id="yy-dJuk-gIZpOYsQ96ie-67" value="(1:1)" style="text;html=1;align=center;verticalAlign=middle;resizable=0;points=[];autosize=1;strokeColor=none;fillColor=none;" vertex="1" parent="1">
          <mxGeometry x="645" y="418" width="50" height="30" as="geometry" />
        </mxCell>
        <mxCell id="yy-dJuk-gIZpOYsQ96ie-68" value="(1:n)" style="text;html=1;align=center;verticalAlign=middle;resizable=0;points=[];autosize=1;strokeColor=none;fillColor=none;" vertex="1" parent="1">
          <mxGeometry x="653" y="300" width="50" height="30" as="geometry" />
        </mxCell>
        <mxCell id="yy-dJuk-gIZpOYsQ96ie-69" value="1:N" style="text;html=1;align=center;verticalAlign=middle;resizable=0;points=[];autosize=1;strokeColor=none;fillColor=none;" vertex="1" parent="1">
          <mxGeometry x="690" y="355" width="40" height="30" as="geometry" />
        </mxCell>
        <mxCell id="yy-dJuk-gIZpOYsQ96ie-74" value="calle" style="ellipse;whiteSpace=wrap;html=1;align=center;dashed=1;" vertex="1" parent="1">
          <mxGeometry x="795" y="30" width="60" height="40" as="geometry" />
        </mxCell>
        <mxCell id="yy-dJuk-gIZpOYsQ96ie-76" value="piso" style="ellipse;whiteSpace=wrap;html=1;align=center;dashed=1;" vertex="1" parent="1">
          <mxGeometry x="862.4599999999999" y="10" width="45.09" height="40" as="geometry" />
        </mxCell>
        <mxCell id="yy-dJuk-gIZpOYsQ96ie-78" value="CP" style="ellipse;whiteSpace=wrap;html=1;align=center;dashed=1;" vertex="1" parent="1">
          <mxGeometry x="920" y="20" width="42.45" height="40" as="geometry" />
        </mxCell>
        <mxCell id="yy-dJuk-gIZpOYsQ96ie-80" value="nombre" style="ellipse;whiteSpace=wrap;html=1;align=center;dashed=1;" vertex="1" parent="1">
          <mxGeometry x="670" y="100" width="50" height="40" as="geometry" />
        </mxCell>
        <mxCell id="yy-dJuk-gIZpOYsQ96ie-82" value="apellido1" style="ellipse;whiteSpace=wrap;html=1;align=center;dashed=1;" vertex="1" parent="1">
          <mxGeometry x="720" y="80" width="60" height="40" as="geometry" />
        </mxCell>
        <mxCell id="yy-dJuk-gIZpOYsQ96ie-85" value="apellido2" style="ellipse;whiteSpace=wrap;html=1;align=center;dashed=1;" vertex="1" parent="1">
          <mxGeometry x="790" y="100" width="50" height="40" as="geometry" />
        </mxCell>
      </root>
    </mxGraphModel>
  </diagram>
</mxfile>
